# xmcd CD database file
# Copyright (C) 1993-1999  Ti Kan
#
# Track frame offsets:
#	150
#	10497
#	21662
#	34845
#	48907
#	62490
#	76857
#	90567
#	104870
#	117000
#	127797
#	140642
#	154800
#	167542
#	178852
#	192145
#	206857
#	227160
#
# Disc length: 3499 seconds
#
# Revision: 3
# Processed by: cddbd v1.4PL0 Copyright (c) Steve Scherf et al.
# Submitted via: xmcd 2.5 PL1
#
DISCID=f40da912
DTITLE=Nat King Cole - Rockin' Boppin' and Blues
DYEAR=1900
DGENRE=
TTITLE0=I'm An Errand Boy for Rhythm
TTITLE1=Straighten Up and Fly Right
TTITLE2=Gee Baby, Ain't I Good To You
TTITLE3=Easy Listenin' Blues
TTITLE4=(Get Your Kicks On) Route 66
TTITLE5=The Frim Fram Sauce
TTITLE6=Baby, Baby All the Time
TTITLE7=Chant of the Blues
TTITLE8=I Think You Get What I Mean
TTITLE9=Ooh, Kickeroonie
TTITLE10=Blues in My Shower
TTITLE11=If I Were You, Baby, I'd Love Me
TTITLE12=Walkin'
TTITLE13=Send for Me
TTITLE14=Beale Street Blues
TTITLE15=Wee Baby Blues
TTITLE16=Joe Turner Blues (Live)
TTITLE17=Mr. Cole Won't Rock and Roll (Live)
EXTD=
EXTT0=
EXTT1=
EXTT2=
EXTT3=
EXTT4=
EXTT5=
EXTT6=
EXTT7=
EXTT8=
EXTT9=
EXTT10=
EXTT11=
EXTT12=
EXTT13=
EXTT14=
EXTT15=
EXTT16=
EXTT17=
PLAYORDER=
